<svg xmlns="http://www.w3.org/2000/svg" xmlns:xlink="http://www.w3.org/1999/xlink" width="200" zoomAndPan="magnify" viewBox="0 0 150 149.999998" height="200" preserveAspectRatio="xMidYMid meet" version="1.0"><defs><clipPath id="48b7a2af19"><path d="M 15 15 L 135 15 L 135 135 L 15 135 Z M 15 15 " clip-rule="nonzero"/></clipPath><clipPath id="4f13a12fc3"><path d="M 36.75 15 L 113.25 15 C 119.019531 15 124.550781 17.292969 128.628906 21.371094 C 132.707031 25.449219 135 30.980469 135 36.75 L 135 113.25 C 135 119.019531 132.707031 124.550781 128.628906 128.628906 C 124.550781 132.707031 119.019531 135 113.25 135 L 36.75 135 C 30.980469 135 25.449219 132.707031 21.371094 128.628906 C 17.292969 124.550781 15 119.019531 15 113.25 L 15 36.75 C 15 30.980469 17.292969 25.449219 21.371094 21.371094 C 25.449219 17.292969 30.980469 15 36.75 15 Z M 36.75 15 " clip-rule="nonzero"/></clipPath><clipPath id="6c3ab15b05"><path d="M 0 0 L 120 0 L 120 120 L 0 120 Z M 0 0 " clip-rule="nonzero"/></clipPath><clipPath id="08f6357b0c"><path d="M 21.75 0 L 98.25 0 C 104.019531 0 109.550781 2.292969 113.628906 6.371094 C 117.707031 10.449219 120 15.980469 120 21.75 L 120 98.25 C 120 104.019531 117.707031 109.550781 113.628906 113.628906 C 109.550781 117.707031 104.019531 120 98.25 120 L 21.75 120 C 15.980469 120 10.449219 117.707031 6.371094 113.628906 C 2.292969 109.550781 0 104.019531 0 98.25 L 0 21.75 C 0 15.980469 2.292969 10.449219 6.371094 6.371094 C 10.449219 2.292969 15.980469 0 21.75 0 Z M 21.75 0 " clip-rule="nonzero"/></clipPath><clipPath id="cdddd8a160"><rect x="0" width="120" y="0" height="120"/></clipPath><clipPath id="a2a260c8ec"><path d="M 43 81.898438 L 107 81.898438 L 107 110.578125 L 43 110.578125 Z M 43 81.898438 " clip-rule="nonzero"/></clipPath><clipPath id="2573858b16"><path d="M 83.980469 83.792969 L 104.421875 92.441406 C 105.945312 93.085938 106.9375 94.582031 106.9375 96.238281 C 106.9375 97.894531 105.945312 99.390625 104.421875 100.039062 L 83.980469 108.683594 C 78.238281 111.113281 71.761719 111.113281 66.019531 108.683594 L 45.578125 100.039062 C 44.054688 99.390625 43.0625 97.894531 43.0625 96.238281 C 43.0625 94.582031 44.054688 93.085938 45.578125 92.441406 L 66.019531 83.792969 C 71.761719 81.367188 78.238281 81.367188 83.980469 83.792969 Z M 83.980469 83.792969 " clip-rule="nonzero"/></clipPath><clipPath id="ea89cd3dc6"><path d="M 0 0.898438 L 64 0.898438 L 64 29.578125 L 0 29.578125 Z M 0 0.898438 " clip-rule="nonzero"/></clipPath><clipPath id="b92782da2b"><path d="M 40.980469 2.792969 L 61.421875 11.441406 C 62.945312 12.085938 63.9375 13.582031 63.9375 15.238281 C 63.9375 16.894531 62.945312 18.390625 61.421875 19.039062 L 40.980469 27.683594 C 35.238281 30.113281 28.761719 30.113281 23.019531 27.683594 L 2.578125 19.039062 C 1.054688 18.390625 0.0625 16.894531 0.0625 15.238281 C 0.0625 13.582031 1.054688 12.085938 2.578125 11.441406 L 23.019531 2.792969 C 28.761719 0.367188 35.238281 0.367188 40.980469 2.792969 Z M 40.980469 2.792969 " clip-rule="nonzero"/></clipPath><clipPath id="7c9e4821aa"><rect x="0" width="64" y="0" height="30"/></clipPath><clipPath id="36b377cd43"><path d="M 43 81.042969 L 107 81.042969 L 107 111 L 43 111 Z M 43 81.042969 " clip-rule="nonzero"/></clipPath><clipPath id="fe3b1a617a"><path d="M 83.976562 83.796875 L 104.414062 92.441406 C 105.941406 93.085938 106.929688 94.582031 106.929688 96.238281 C 106.929688 97.894531 105.941406 99.390625 104.414062 100.035156 L 83.976562 108.683594 C 78.234375 111.109375 71.757812 111.109375 66.015625 108.683594 L 45.578125 100.035156 C 44.050781 99.390625 43.0625 97.894531 43.0625 96.238281 C 43.0625 94.582031 44.050781 93.085938 45.578125 92.441406 L 66.015625 83.796875 C 71.757812 81.367188 78.234375 81.367188 83.976562 83.796875 Z M 83.976562 83.796875 " clip-rule="nonzero"/></clipPath><clipPath id="2312e50886"><path d="M 62 1 L 65 1 L 65 36.359375 L 62 36.359375 Z M 62 1 " clip-rule="nonzero"/></clipPath><clipPath id="769cec392b"><rect x="0" width="66" y="0" height="37"/></clipPath><clipPath id="74abd0ac6c"><path d="M 45.933594 71.375 L 104.125 71.375 L 104.125 96.238281 L 45.933594 96.238281 Z M 45.933594 71.375 " clip-rule="nonzero"/></clipPath><clipPath id="0025d41193"><path d="M 0.933594 0.375 L 59.125 0.375 L 59.125 25.238281 L 0.933594 25.238281 Z M 0.933594 0.375 " clip-rule="nonzero"/></clipPath><clipPath id="feed874237"><rect x="0" width="60" y="0" height="26"/></clipPath><clipPath id="b7b06a9acc"><path d="M 30.484375 38.152344 L 119.5 38.152344 L 119.5 83.53125 L 30.484375 83.53125 Z M 30.484375 38.152344 " clip-rule="nonzero"/></clipPath><clipPath id="19d8a55ad5"><path d="M 83.75 40.316406 L 116.777344 56.542969 C 118.417969 57.347656 119.457031 59.015625 119.457031 60.839844 C 119.457031 62.667969 118.417969 64.335938 116.777344 65.140625 L 83.75 81.367188 C 78.230469 84.078125 71.769531 84.078125 66.25 81.367188 L 33.222656 65.140625 C 31.582031 64.335938 30.542969 62.667969 30.542969 60.839844 C 30.542969 59.015625 31.582031 57.347656 33.222656 56.542969 L 66.25 40.316406 C 71.769531 37.605469 78.230469 37.605469 83.75 40.316406 Z M 83.75 40.316406 " clip-rule="nonzero"/></clipPath><clipPath id="81d197ff53"><path d="M 0.484375 0.152344 L 89.5 0.152344 L 89.5 45.53125 L 0.484375 45.53125 Z M 0.484375 0.152344 " clip-rule="nonzero"/></clipPath><clipPath id="d122169236"><path d="M 53.75 2.316406 L 86.777344 18.542969 C 88.417969 19.347656 89.457031 21.015625 89.457031 22.839844 C 89.457031 24.667969 88.417969 26.335938 86.777344 27.140625 L 53.75 43.367188 C 48.230469 46.078125 41.769531 46.078125 36.25 43.367188 L 3.222656 27.140625 C 1.582031 26.335938 0.542969 24.667969 0.542969 22.839844 C 0.542969 21.015625 1.582031 19.347656 3.222656 18.542969 L 36.25 2.316406 C 41.769531 -0.394531 48.230469 -0.394531 53.75 2.316406 Z M 53.75 2.316406 " clip-rule="nonzero"/></clipPath><clipPath id="bcc9d0485b"><rect x="0" width="90" y="0" height="46"/></clipPath><clipPath id="8f9b8d861f"><path d="M 30 38.109375 L 119.5625 38.109375 L 119.5625 84 L 30 84 Z M 30 38.109375 " clip-rule="nonzero"/></clipPath><clipPath id="4300674e7d"><path d="M 83.746094 40.316406 L 116.769531 56.539062 C 118.40625 57.34375 119.445312 59.011719 119.445312 60.839844 C 119.445312 62.664062 118.40625 64.332031 116.769531 65.136719 L 83.746094 81.359375 C 78.226562 84.070312 71.765625 84.070312 66.246094 81.359375 L 33.222656 65.136719 C 31.585938 64.332031 30.546875 62.664062 30.546875 60.839844 C 30.546875 59.011719 31.585938 57.34375 33.222656 56.539062 L 66.246094 40.316406 C 71.765625 37.605469 78.226562 37.605469 83.746094 40.316406 Z M 83.746094 40.316406 " clip-rule="nonzero"/></clipPath></defs><g clip-path="url(#48b7a2af19)"><g clip-path="url(#4f13a12fc3)"><g transform="matrix(1, 0, 0, 1, 15, 15)"><g clip-path="url(#cdddd8a160)"><g clip-path="url(#6c3ab15b05)"><g clip-path="url(#08f6357b0c)"><rect x="-48" width="216" fill="#dfffdd" height="215.999996" y="-47.999999" fill-opacity="1"/></g></g></g></g><path stroke-linecap="butt" transform="matrix(0.75, 0, 0, 0.75, 15, 15.000001)" fill="none" stroke-linejoin="miter" d="M 28.999999 -0.0000015 L 130.999999 -0.0000015 C 138.692707 -0.0000015 146.067707 3.05729 151.505207 8.49479 C 156.942707 13.93229 159.999999 21.30729 159.999999 28.999998 L 159.999999 130.999998 C 159.999999 138.692706 156.942707 146.067706 151.505207 151.505206 C 146.067707 156.942706 138.692707 159.999998 130.999999 159.999998 L 28.999999 159.999998 C 21.307291 159.999998 13.932291 156.942706 8.494791 151.505206 C 3.057291 146.067706 -0.0000005 138.692706 -0.0000005 130.999998 L -0.0000005 28.999998 C -0.0000005 21.30729 3.057291 13.93229 8.494791 8.49479 C 13.932291 3.05729 21.307291 -0.0000015 28.999999 -0.0000015 Z M 28.999999 -0.0000015 " stroke="#000000" stroke-width="8" stroke-opacity="1" stroke-miterlimit="4"/></g></g><g clip-path="url(#a2a260c8ec)"><g clip-path="url(#2573858b16)"><g transform="matrix(1, 0, 0, 1, 43, 81)"><g clip-path="url(#7c9e4821aa)"><g clip-path="url(#ea89cd3dc6)"><g clip-path="url(#b92782da2b)"><rect x="-76" width="216" fill="#ffffff" height="215.999996" y="-113.999999" fill-opacity="1"/></g></g></g></g></g></g><g clip-path="url(#36b377cd43)"><g clip-path="url(#fe3b1a617a)"><path stroke-linecap="butt" transform="matrix(0.75, 0, 0, 0.75, 36.599622, 79.997496)" fill="none" stroke-linejoin="miter" d="M 63.169254 5.065839 L 90.419254 16.591881 C 92.455712 17.451256 93.77342 19.446047 93.77342 21.654381 C 93.77342 23.862714 92.455712 25.857506 90.419254 26.716881 L 63.169254 38.24813 C 55.513004 41.482505 46.877587 41.482505 39.221337 38.24813 L 11.971337 26.716881 C 9.934879 25.857506 8.617171 23.862714 8.617171 21.654381 C 8.617171 19.446047 9.934879 17.451256 11.971337 16.591881 L 39.221337 5.065839 C 46.877587 1.826256 55.513004 1.826256 63.169254 5.065839 Z M 63.169254 5.065839 " stroke="#000000" stroke-width="8" stroke-opacity="1" stroke-miterlimit="4"/></g></g><g transform="matrix(1, 0, 0, 1, 42, 63)"><g clip-path="url(#769cec392b)"><path stroke-linecap="butt" transform="matrix(0, -0.734703, 0.734703, 0, 1.017373, 34.3317)" fill="none" stroke-linejoin="miter" d="M -0.000450315 2.002044 L 43.10794 2.002044 " stroke="#000000" stroke-width="4" stroke-opacity="1" stroke-miterlimit="4"/><g clip-path="url(#2312e50886)"><path stroke-linecap="butt" transform="matrix(0, -0.734703, 0.734703, 0, 62.03292, 34.718991)" fill="none" stroke-linejoin="miter" d="M 0.000327397 2.00215 L 43.108717 2.00215 " stroke="#000000" stroke-width="4" stroke-opacity="1" stroke-miterlimit="4"/></g></g></g><g clip-path="url(#74abd0ac6c)"><g transform="matrix(1, 0, 0, 1, 45, 71)"><g clip-path="url(#feed874237)"><g clip-path="url(#0025d41193)"><path fill="#ffffff" d="M 0.933594 0.375 L 59.113281 0.375 L 59.113281 25.238281 L 0.933594 25.238281 Z M 0.933594 0.375 " fill-opacity="1" fill-rule="nonzero"/></g></g></g></g><g clip-path="url(#b7b06a9acc)"><g clip-path="url(#19d8a55ad5)"><g transform="matrix(1, 0, 0, 1, 30, 38)"><g clip-path="url(#bcc9d0485b)"><g clip-path="url(#81d197ff53)"><g clip-path="url(#d122169236)"><rect x="-63" width="216" fill="#ffffff" height="215.999996" y="-70.999999" fill-opacity="1"/></g></g></g></g></g></g><g clip-path="url(#8f9b8d861f)"><g clip-path="url(#4300674e7d)"><path stroke-linecap="butt" transform="matrix(0.75, 0, 0, 0.75, 24.474038, 36.017871)" fill="none" stroke-linejoin="miter" d="M 79.029417 5.731381 L 123.060673 27.361592 C 125.242965 28.434509 126.628382 30.658467 126.628382 33.095968 C 126.628382 35.52826 125.242965 37.752218 123.060673 38.825135 L 79.029417 60.455346 C 71.670041 64.06993 63.055457 64.06993 55.696081 60.455346 L 11.664826 38.825135 C 9.482534 37.752218 8.097117 35.52826 8.097117 33.095968 C 8.097117 30.658467 9.482534 28.434509 11.664826 27.361592 L 55.696081 5.731381 C 63.055457 2.116797 71.670041 2.116797 79.029417 5.731381 Z M 79.029417 5.731381 " stroke="#000000" stroke-width="8" stroke-opacity="1" stroke-miterlimit="4"/></g></g><path stroke-linecap="butt" transform="matrix(0.75, 0, 0, 0.75, 73.045545, 50.902792)" fill="none" stroke-linejoin="miter" d="M 2.001773 9.827528 L 2.001773 5.910861 C 2.001773 4.874403 2.413232 3.879611 3.147607 3.145236 C 3.881982 2.410861 4.876774 1.999403 5.913232 1.999403 L 16.303858 1.999403 C 20.100733 1.999403 23.73615 3.504611 26.418442 6.192111 C 29.105942 8.874403 30.61115 12.50982 30.61115 16.306695 L 30.61115 71.879615 C 30.61115 77.525449 35.189275 82.103574 40.835109 82.103574 L 51.059068 82.103574 " stroke="#000000" stroke-width="4" stroke-opacity="1" stroke-miterlimit="4"/></svg>