<svg xmlns="http://www.w3.org/2000/svg" xmlns:xlink="http://www.w3.org/1999/xlink" width="200" zoomAndPan="magnify" viewBox="0 0 150 149.999998" height="200" preserveAspectRatio="xMidYMid meet" version="1.0"><defs><clipPath id="ed731a094d"><path d="M 15 15 L 135 15 L 135 135 L 15 135 Z M 15 15 " clip-rule="nonzero"/></clipPath><clipPath id="1d7edeb2ec"><path d="M 36.75 15 L 113.25 15 C 119.019531 15 124.550781 17.292969 128.628906 21.371094 C 132.707031 25.449219 135 30.980469 135 36.75 L 135 113.25 C 135 119.019531 132.707031 124.550781 128.628906 128.628906 C 124.550781 132.707031 119.019531 135 113.25 135 L 36.75 135 C 30.980469 135 25.449219 132.707031 21.371094 128.628906 C 17.292969 124.550781 15 119.019531 15 113.25 L 15 36.75 C 15 30.980469 17.292969 25.449219 21.371094 21.371094 C 25.449219 17.292969 30.980469 15 36.75 15 Z M 36.75 15 " clip-rule="nonzero"/></clipPath><clipPath id="e1cd898d53"><path d="M 0 0 L 120 0 L 120 120 L 0 120 Z M 0 0 " clip-rule="nonzero"/></clipPath><clipPath id="e43c6ae9bd"><path d="M 21.75 0 L 98.25 0 C 104.019531 0 109.550781 2.292969 113.628906 6.371094 C 117.707031 10.449219 120 15.980469 120 21.75 L 120 98.25 C 120 104.019531 117.707031 109.550781 113.628906 113.628906 C 109.550781 117.707031 104.019531 120 98.25 120 L 21.75 120 C 15.980469 120 10.449219 117.707031 6.371094 113.628906 C 2.292969 109.550781 0 104.019531 0 98.25 L 0 21.75 C 0 15.980469 2.292969 10.449219 6.371094 6.371094 C 10.449219 2.292969 15.980469 0 21.75 0 Z M 21.75 0 " clip-rule="nonzero"/></clipPath><clipPath id="cc9118caf5"><rect x="0" width="120" y="0" height="120"/></clipPath><clipPath id="7f4dabb8d3"><path d="M 52.238281 26.25 L 97.582031 26.25 L 97.582031 123.644531 L 52.238281 123.644531 Z M 52.238281 26.25 " clip-rule="nonzero"/></clipPath><clipPath id="2a18f176c1"><path d="M 54.667969 26.425781 L 95.332031 26.425781 C 95.929688 26.425781 96.503906 26.664062 96.925781 27.085938 C 97.347656 27.507812 97.582031 28.082031 97.582031 28.675781 L 97.582031 121.324219 C 97.582031 121.917969 97.347656 122.492188 96.925781 122.914062 C 96.503906 123.335938 95.929688 123.574219 95.332031 123.574219 L 54.667969 123.574219 C 54.070312 123.574219 53.496094 123.335938 53.074219 122.914062 C 52.652344 122.492188 52.417969 121.917969 52.417969 121.324219 L 52.417969 28.675781 C 52.417969 28.082031 52.652344 27.507812 53.074219 27.085938 C 53.496094 26.664062 54.070312 26.425781 54.667969 26.425781 Z M 54.667969 26.425781 " clip-rule="nonzero"/></clipPath><clipPath id="be2f736b97"><path d="M 0.320312 0.398438 L 45.582031 0.398438 L 45.582031 97.601562 L 0.320312 97.601562 Z M 0.320312 0.398438 " clip-rule="nonzero"/></clipPath><clipPath id="362eaca78b"><path d="M 2.667969 0.425781 L 43.332031 0.425781 C 43.929688 0.425781 44.503906 0.664062 44.925781 1.085938 C 45.347656 1.507812 45.582031 2.082031 45.582031 2.675781 L 45.582031 95.324219 C 45.582031 95.917969 45.347656 96.492188 44.925781 96.914062 C 44.503906 97.335938 43.929688 97.574219 43.332031 97.574219 L 2.667969 97.574219 C 2.070312 97.574219 1.496094 97.335938 1.074219 96.914062 C 0.652344 96.492188 0.417969 95.917969 0.417969 95.324219 L 0.417969 2.675781 C 0.417969 2.082031 0.652344 1.507812 1.074219 1.085938 C 1.496094 0.664062 2.070312 0.425781 2.667969 0.425781 Z M 2.667969 0.425781 " clip-rule="nonzero"/></clipPath><clipPath id="aae6df169d"><rect x="0" width="46" y="0" height="98"/></clipPath><clipPath id="fbd5205068"><path d="M 52.417969 26.425781 L 97.417969 26.425781 L 97.417969 123.921875 L 52.417969 123.921875 Z M 52.417969 26.425781 " clip-rule="nonzero"/></clipPath><clipPath id="903402ed69"><path d="M 54.667969 26.425781 L 95.332031 26.425781 C 95.925781 26.425781 96.5 26.664062 96.921875 27.085938 C 97.34375 27.507812 97.578125 28.082031 97.578125 28.675781 L 97.578125 121.3125 C 97.578125 121.910156 97.34375 122.484375 96.921875 122.90625 C 96.5 123.328125 95.925781 123.5625 95.332031 123.5625 L 54.667969 123.5625 C 54.070312 123.5625 53.496094 123.328125 53.074219 122.90625 C 52.652344 122.484375 52.417969 121.910156 52.417969 121.3125 L 52.417969 28.675781 C 52.417969 28.082031 52.652344 27.507812 53.074219 27.085938 C 53.496094 26.664062 54.070312 26.425781 54.667969 26.425781 Z M 54.667969 26.425781 " clip-rule="nonzero"/></clipPath><clipPath id="84e3ad933a"><path d="M 50.625 31.191406 L 99.375 31.191406 L 99.375 118.984375 L 50.625 118.984375 Z M 50.625 31.191406 " clip-rule="nonzero"/></clipPath><clipPath id="1e91b2ea53"><path d="M 52.875 31.191406 L 97.125 31.191406 C 97.722656 31.191406 98.292969 31.429688 98.714844 31.851562 C 99.136719 32.273438 99.375 32.847656 99.375 33.441406 L 99.375 116.558594 C 99.375 117.152344 99.136719 117.726562 98.714844 118.148438 C 98.292969 118.570312 97.722656 118.808594 97.125 118.808594 L 52.875 118.808594 C 52.277344 118.808594 51.707031 118.570312 51.285156 118.148438 C 50.863281 117.726562 50.625 117.152344 50.625 116.558594 L 50.625 33.441406 C 50.625 32.847656 50.863281 32.273438 51.285156 31.851562 C 51.707031 31.429688 52.277344 31.191406 52.875 31.191406 Z M 52.875 31.191406 " clip-rule="nonzero"/></clipPath><clipPath id="8bbeddf66e"><path d="M 0.625 0.191406 L 49.375 0.191406 L 49.375 87.984375 L 0.625 87.984375 Z M 0.625 0.191406 " clip-rule="nonzero"/></clipPath><clipPath id="21ef8aa807"><path d="M 2.875 0.191406 L 47.125 0.191406 C 47.722656 0.191406 48.292969 0.429688 48.714844 0.851562 C 49.136719 1.273438 49.375 1.847656 49.375 2.441406 L 49.375 85.558594 C 49.375 86.152344 49.136719 86.726562 48.714844 87.148438 C 48.292969 87.570312 47.722656 87.808594 47.125 87.808594 L 2.875 87.808594 C 2.277344 87.808594 1.707031 87.570312 1.285156 87.148438 C 0.863281 86.726562 0.625 86.152344 0.625 85.558594 L 0.625 2.441406 C 0.625 1.847656 0.863281 1.273438 1.285156 0.851562 C 1.707031 0.429688 2.277344 0.191406 2.875 0.191406 Z M 2.875 0.191406 " clip-rule="nonzero"/></clipPath><clipPath id="3e648deb1e"><rect x="0" width="50" y="0" height="88"/></clipPath><clipPath id="baa2f8cef6"><path d="M 50.625 31.191406 L 99.375 31.191406 L 99.375 118.941406 L 50.625 118.941406 Z M 50.625 31.191406 " clip-rule="nonzero"/></clipPath><clipPath id="543b0b0227"><path d="M 52.875 31.191406 L 97.125 31.191406 C 97.71875 31.191406 98.292969 31.429688 98.714844 31.851562 C 99.136719 32.273438 99.375 32.847656 99.375 33.441406 L 99.375 116.550781 C 99.375 117.148438 99.136719 117.722656 98.714844 118.144531 C 98.292969 118.566406 97.71875 118.800781 97.125 118.800781 L 52.875 118.800781 C 52.277344 118.800781 51.707031 118.566406 51.285156 118.144531 C 50.863281 117.722656 50.625 117.148438 50.625 116.550781 L 50.625 33.441406 C 50.625 32.847656 50.863281 32.273438 51.285156 31.851562 C 51.707031 31.429688 52.277344 31.191406 52.875 31.191406 Z M 52.875 31.191406 " clip-rule="nonzero"/></clipPath></defs><g clip-path="url(#ed731a094d)"><g clip-path="url(#1d7edeb2ec)"><g transform="matrix(1, 0, 0, 1, 15, 15)"><g clip-path="url(#cc9118caf5)"><g clip-path="url(#e1cd898d53)"><g clip-path="url(#e43c6ae9bd)"><rect x="-48" width="216" fill="#ffd4d4" height="215.999996" y="-47.999999" fill-opacity="1"/></g></g></g></g><path stroke-linecap="butt" transform="matrix(0.75, 0, 0, 0.75, 15, 15.000001)" fill="none" stroke-linejoin="miter" d="M 28.999999 -0.0000015 L 130.999999 -0.0000015 C 138.692707 -0.0000015 146.067707 3.05729 151.505207 8.49479 C 156.942707 13.93229 159.999999 21.30729 159.999999 28.999998 L 159.999999 130.999998 C 159.999999 138.692706 156.942707 146.067706 151.505207 151.505206 C 146.067707 156.942706 138.692707 159.999998 130.999999 159.999998 L 28.999999 159.999998 C 21.307291 159.999998 13.932291 156.942706 8.494791 151.505206 C 3.057291 146.067706 -0.0000005 138.692706 -0.0000005 130.999998 L -0.0000005 28.999998 C -0.0000005 21.30729 3.057291 13.93229 8.494791 8.49479 C 13.932291 3.05729 21.307291 -0.0000015 28.999999 -0.0000015 Z M 28.999999 -0.0000015 " stroke="#000000" stroke-width="8" stroke-opacity="1" stroke-miterlimit="4"/></g></g><g clip-path="url(#7f4dabb8d3)"><g clip-path="url(#2a18f176c1)"><g transform="matrix(1, 0, 0, 1, 52, 26)"><g clip-path="url(#aae6df169d)"><g clip-path="url(#be2f736b97)"><g clip-path="url(#362eaca78b)"><path fill="#ffffff" d="M 0.417969 0.425781 L 45.582031 0.425781 L 45.582031 97.644531 L 0.417969 97.644531 Z M 0.417969 0.425781 " fill-opacity="1" fill-rule="nonzero"/></g></g></g></g></g></g><g clip-path="url(#fbd5205068)"><g clip-path="url(#903402ed69)"><path stroke-linecap="butt" transform="matrix(0.75, 0, 0, 0.75, 52.41686, 26.427246)" fill="none" stroke-linejoin="miter" d="M 3.001479 -0.00195361 L 57.220236 -0.00195361 C 58.011902 -0.00195361 58.777527 0.315755 59.340028 0.878255 C 59.902528 1.440755 60.215028 2.20638 60.215028 2.998047 L 60.215028 126.513687 C 60.215028 127.310562 59.902528 128.076187 59.340028 128.638687 C 58.777527 129.201187 58.011902 129.513687 57.220236 129.513687 L 3.001479 129.513687 C 2.204604 129.513687 1.438979 129.201187 0.876479 128.638687 C 0.313979 128.076187 0.00147861 127.310562 0.00147861 126.513687 L 0.00147861 2.998047 C 0.00147861 2.20638 0.313979 1.440755 0.876479 0.878255 C 1.438979 0.315755 2.204604 -0.00195361 3.001479 -0.00195361 Z M 3.001479 -0.00195361 " stroke="#000000" stroke-width="8" stroke-opacity="1" stroke-miterlimit="4"/></g></g><g clip-path="url(#84e3ad933a)"><g clip-path="url(#1e91b2ea53)"><g transform="matrix(1, 0, 0, 1, 50, 31)"><g clip-path="url(#3e648deb1e)"><g clip-path="url(#8bbeddf66e)"><g clip-path="url(#21ef8aa807)"><path fill="#ffffff" d="M 0.625 0.191406 L 49.375 0.191406 L 49.375 87.792969 L 0.625 87.792969 Z M 0.625 0.191406 " fill-opacity="1" fill-rule="nonzero"/></g></g></g></g></g></g><g clip-path="url(#baa2f8cef6)"><g clip-path="url(#543b0b0227)"><path stroke-linecap="butt" transform="matrix(0.75, 0, 0, 0.75, 50.625514, 31.192632)" fill="none" stroke-linejoin="miter" d="M 2.999314 -0.00163425 L 61.999318 -0.00163425 C 62.790985 -0.00163425 63.55661 0.316074 64.11911 0.878574 C 64.68161 1.441074 64.999318 2.206699 64.999318 2.998366 L 64.999318 113.810872 C 64.999318 114.607747 64.68161 115.373372 64.11911 115.935873 C 63.55661 116.498373 62.790985 116.810873 61.999318 116.810873 L 2.999314 116.810873 C 2.202439 116.810873 1.442023 116.498373 0.879523 115.935873 C 0.317023 115.373372 -0.000685729 114.607747 -0.000685729 113.810872 L -0.000685729 2.998366 C -0.000685729 2.206699 0.317023 1.441074 0.879523 0.878574 C 1.442023 0.316074 2.202439 -0.00163425 2.999314 -0.00163425 Z M 2.999314 -0.00163425 " stroke="#000000" stroke-width="8" stroke-opacity="1" stroke-miterlimit="4"/></g></g><path stroke-linecap="butt" transform="matrix(0.688984, -0.296313, 0.296313, 0.688984, 51.823481, 61.643259)" fill="none" stroke-linejoin="miter" d="M 0.00317398 1.998904 L 65.553861 2.001258 " stroke="#000000" stroke-width="4" stroke-opacity="1" stroke-miterlimit="4"/><path stroke-linecap="butt" transform="matrix(0.688984, -0.296313, 0.296313, 0.688984, 51.823481, 102.791744)" fill="none" stroke-linejoin="miter" d="M 0.00319889 1.998846 L 65.553886 2.001201 " stroke="#000000" stroke-width="4" stroke-opacity="1" stroke-miterlimit="4"/></svg>