<svg xmlns="http://www.w3.org/2000/svg" xmlns:xlink="http://www.w3.org/1999/xlink" width="150" zoomAndPan="magnify" viewBox="0 0 112.5 37.5" height="50" preserveAspectRatio="xMidYMid meet" version="1.0"><defs><g/><clipPath id="a21f6bfb0c"><path d="M 32 0.394531 L 48 0.394531 L 48 19 L 32 19 Z M 32 0.394531 " clip-rule="nonzero"/></clipPath><clipPath id="6de68d6ca1"><rect x="0" width="105" y="0" height="23"/></clipPath></defs><g transform="matrix(1, 0, 0, 1, 4, 6)"><g clip-path="url(#6de68d6ca1)"><g fill="#f17f01" fill-opacity="1"><g transform="translate(0.194079, 15.632405)"><g><path d="M 7.90625 -14.625 L 1.140625 -14.625 L 1.140625 3.09375 L 8.59375 3.09375 C 9.644531 3.09375 10.566406 2.984375 11.359375 2.765625 C 12.097656 2.535156 12.722656 2.210938 13.234375 1.796875 C 13.710938 1.328125 14.066406 0.773438 14.296875 0.140625 C 14.503906 -0.515625 14.609375 -1.304688 14.609375 -2.234375 C 14.609375 -2.421875 14.59375 -2.613281 14.5625 -2.8125 C 14.539062 -3.007812 14.507812 -3.207031 14.46875 -3.40625 C 14.375 -3.769531 14.226562 -4.132812 14.03125 -4.5 C 13.925781 -4.675781 13.804688 -4.835938 13.671875 -4.984375 C 13.546875 -5.140625 13.398438 -5.296875 13.234375 -5.453125 C 12.890625 -5.734375 12.472656 -5.988281 11.984375 -6.21875 C 12.710938 -6.65625 13.222656 -7.191406 13.515625 -7.828125 C 13.816406 -8.460938 13.96875 -9.117188 13.96875 -9.796875 C 13.96875 -11.367188 13.488281 -12.570312 12.53125 -13.40625 C 11.53125 -14.21875 9.988281 -14.625 7.90625 -14.625 Z M 8.34375 -0.265625 L 5.40625 -0.265625 L 5.40625 -4.265625 L 7.90625 -4.265625 C 8.59375 -4.265625 9.171875 -4.09375 9.640625 -3.75 C 10.097656 -3.40625 10.328125 -2.898438 10.328125 -2.234375 C 10.328125 -2.023438 10.3125 -1.835938 10.28125 -1.671875 C 10.257812 -1.515625 10.234375 -1.367188 10.203125 -1.234375 C 10.097656 -0.972656 9.96875 -0.769531 9.8125 -0.625 C 9.625 -0.476562 9.414062 -0.382812 9.1875 -0.34375 C 8.945312 -0.289062 8.664062 -0.265625 8.34375 -0.265625 Z M 7.5625 -7.625 L 5.40625 -7.625 L 5.40625 -11.265625 L 7.796875 -11.265625 C 8.390625 -11.265625 8.863281 -11.144531 9.21875 -10.90625 C 9.539062 -10.625 9.703125 -10.21875 9.703125 -9.6875 C 9.703125 -8.96875 9.503906 -8.445312 9.109375 -8.125 C 8.734375 -7.789062 8.21875 -7.625 7.5625 -7.625 Z M 7.5625 -7.625 "/></g></g></g><g fill="#f17f01" fill-opacity="1"><g transform="translate(15.639256, 15.632405)"><g><path d="M 5.453125 -3.015625 L 5.453125 -14.5 L 1.1875 -14.5 L 1.1875 -3.3125 C 1.1875 -1.976562 1.359375 -0.894531 1.703125 -0.0625 C 2.015625 0.789062 2.484375 1.476562 3.109375 2 C 3.691406 2.476562 4.414062 2.828125 5.28125 3.046875 C 6.113281 3.242188 7.039062 3.34375 8.0625 3.34375 C 9.0625 3.34375 9.988281 3.242188 10.84375 3.046875 C 11.6875 2.859375 12.410156 2.515625 13.015625 2.015625 C 13.628906 1.523438 14.109375 0.847656 14.453125 -0.015625 C 14.796875 -0.859375 14.96875 -1.953125 14.96875 -3.296875 L 14.96875 -14.5 L 10.71875 -14.5 L 10.71875 -3 C 10.71875 -2.40625 10.644531 -1.914062 10.5 -1.53125 C 10.425781 -1.332031 10.34375 -1.15625 10.25 -1 C 10.164062 -0.851562 10.066406 -0.726562 9.953125 -0.625 C 9.679688 -0.382812 9.398438 -0.226562 9.109375 -0.15625 C 8.796875 -0.0625 8.445312 -0.015625 8.0625 -0.015625 C 7.65625 -0.015625 7.3125 -0.0625 7.03125 -0.15625 C 6.726562 -0.226562 6.457031 -0.382812 6.21875 -0.625 C 5.957031 -0.863281 5.769531 -1.171875 5.65625 -1.546875 C 5.582031 -1.734375 5.53125 -1.945312 5.5 -2.1875 C 5.46875 -2.425781 5.453125 -2.703125 5.453125 -3.015625 Z M 5.453125 -3.015625 "/></g></g></g><g clip-path="url(#a21f6bfb0c)"><g fill="#f17f01" fill-opacity="1"><g transform="translate(31.656477, 15.632405)"><g><path d="M 0.953125 -5.75 C 0.953125 -4.863281 0.984375 -4.046875 1.046875 -3.296875 C 1.117188 -2.554688 1.234375 -1.894531 1.390625 -1.3125 C 1.660156 -0.144531 2.113281 0.785156 2.75 1.484375 C 3.34375 2.160156 4.140625 2.644531 5.140625 2.9375 C 6.097656 3.207031 7.269531 3.34375 8.65625 3.34375 C 9.332031 3.34375 9.953125 3.300781 10.515625 3.21875 C 11.085938 3.132812 11.609375 3.015625 12.078125 2.859375 C 12.535156 2.679688 12.957031 2.476562 13.34375 2.25 C 13.726562 2.019531 14.054688 1.753906 14.328125 1.453125 C 14.628906 1.128906 14.878906 0.773438 15.078125 0.390625 C 15.285156 0.015625 15.453125 -0.382812 15.578125 -0.8125 C 15.691406 -1.257812 15.78125 -1.734375 15.84375 -2.234375 C 15.90625 -2.742188 15.9375 -3.273438 15.9375 -3.828125 L 15.9375 -6.703125 L 8.390625 -6.703125 L 8.390625 -3.359375 L 11.609375 -3.359375 C 11.566406 -2.578125 11.460938 -1.984375 11.296875 -1.578125 C 11.210938 -1.347656 11.109375 -1.148438 10.984375 -0.984375 C 10.867188 -0.828125 10.738281 -0.691406 10.59375 -0.578125 C 10.300781 -0.328125 9.992188 -0.179688 9.671875 -0.140625 C 9.484375 -0.0976562 9.300781 -0.0664062 9.125 -0.046875 C 8.945312 -0.0351562 8.769531 -0.03125 8.59375 -0.03125 C 8.125 -0.03125 7.6875 -0.109375 7.28125 -0.265625 C 6.863281 -0.390625 6.503906 -0.671875 6.203125 -1.109375 C 6.046875 -1.328125 5.90625 -1.578125 5.78125 -1.859375 C 5.664062 -2.140625 5.566406 -2.472656 5.484375 -2.859375 C 5.398438 -3.222656 5.332031 -3.644531 5.28125 -4.125 C 5.238281 -4.613281 5.21875 -5.15625 5.21875 -5.75 C 5.21875 -6.375 5.238281 -6.929688 5.28125 -7.421875 C 5.332031 -7.921875 5.398438 -8.359375 5.484375 -8.734375 C 5.640625 -9.453125 5.878906 -10.007812 6.203125 -10.40625 C 6.503906 -10.789062 6.863281 -11.039062 7.28125 -11.15625 C 7.6875 -11.269531 8.125 -11.328125 8.59375 -11.328125 C 8.769531 -11.328125 8.941406 -11.316406 9.109375 -11.296875 C 9.285156 -11.273438 9.457031 -11.253906 9.625 -11.234375 C 9.925781 -11.148438 10.21875 -11.019531 10.5 -10.84375 C 10.625 -10.757812 10.742188 -10.65625 10.859375 -10.53125 C 10.972656 -10.40625 11.078125 -10.269531 11.171875 -10.125 C 11.335938 -9.820312 11.457031 -9.421875 11.53125 -8.921875 L 15.84375 -8.921875 C 15.800781 -9.285156 15.738281 -9.648438 15.65625 -10.015625 C 15.570312 -10.378906 15.46875 -10.738281 15.34375 -11.09375 C 15.21875 -11.4375 15.050781 -11.757812 14.84375 -12.0625 C 14.632812 -12.375 14.394531 -12.660156 14.125 -12.921875 C 13.582031 -13.441406 12.867188 -13.867188 11.984375 -14.203125 C 11.546875 -14.359375 11.050781 -14.472656 10.5 -14.546875 C 9.945312 -14.628906 9.332031 -14.671875 8.65625 -14.671875 C 7.289062 -14.671875 6.132812 -14.539062 5.1875 -14.28125 C 4.207031 -14.007812 3.410156 -13.539062 2.796875 -12.875 C 2.148438 -12.1875 1.6875 -11.273438 1.40625 -10.140625 C 1.101562 -8.984375 0.953125 -7.519531 0.953125 -5.75 Z M 0.953125 -5.75 "/></g></g></g></g><g fill="#f17f01" fill-opacity="1"><g transform="translate(48.6271, 15.632405)"><g><path d="M 1.15625 3 L 4.15625 3 C 4.632812 3 4.976562 2.914062 5.1875 2.75 C 5.351562 2.550781 5.4375 2.222656 5.4375 1.765625 L 5.4375 -14.53125 L 1.15625 -14.53125 Z M 1.15625 3 "/></g></g></g><g fill="#f17f01" fill-opacity="1"><g transform="translate(55.053057, 15.632405)"><g><path d="M 5.40625 -14.609375 L 1.140625 -14.609375 L 1.140625 0.6875 C 1.140625 1.132812 1.1875 1.492188 1.28125 1.765625 C 1.351562 2.066406 1.484375 2.3125 1.671875 2.5 C 1.867188 2.675781 2.125 2.804688 2.4375 2.890625 C 2.738281 2.972656 3.140625 3.015625 3.640625 3.015625 L 11.953125 3.015625 C 12.429688 3.015625 12.773438 2.929688 12.984375 2.765625 C 13.148438 2.578125 13.234375 2.253906 13.234375 1.796875 L 13.234375 -0.34375 L 5.984375 -0.34375 C 5.753906 -0.34375 5.609375 -0.375 5.546875 -0.4375 C 5.453125 -0.488281 5.40625 -0.632812 5.40625 -0.875 Z M 5.40625 -14.609375 "/></g></g></g><g fill="#f17f01" fill-opacity="1"><g transform="translate(69.163473, 15.632405)"><g><path d="M 1.15625 3 L 4.15625 3 C 4.632812 3 4.976562 2.914062 5.1875 2.75 C 5.351562 2.550781 5.4375 2.222656 5.4375 1.765625 L 5.4375 -14.53125 L 1.15625 -14.53125 Z M 1.15625 3 "/></g></g></g><g fill="#f17f01" fill-opacity="1"><g transform="translate(75.58943, 15.632405)"><g><path d="M 13.234375 -14.53125 L 1.140625 -14.53125 L 1.140625 3.09375 L 4.140625 3.09375 C 4.617188 3.09375 4.960938 3.007812 5.171875 2.84375 C 5.328125 2.644531 5.40625 2.320312 5.40625 1.875 L 5.40625 -3.703125 L 11.859375 -3.703125 C 12.367188 -3.703125 12.710938 -3.785156 12.890625 -3.953125 C 13.054688 -4.109375 13.140625 -4.429688 13.140625 -4.921875 L 13.140625 -7.046875 L 5.40625 -7.046875 L 5.40625 -11.171875 L 11.953125 -11.171875 C 12.460938 -11.171875 12.804688 -11.253906 12.984375 -11.421875 C 13.148438 -11.585938 13.234375 -11.910156 13.234375 -12.390625 Z M 13.234375 -14.53125 "/></g></g></g><g fill="#f17f01" fill-opacity="1"><g transform="translate(89.699847, 15.632405)"><g><path d="M 13.234375 1.765625 L 13.234375 -0.359375 L 5.984375 -0.359375 C 5.753906 -0.359375 5.609375 -0.390625 5.546875 -0.453125 C 5.453125 -0.503906 5.40625 -0.648438 5.40625 -0.890625 L 5.40625 -4.078125 L 11.765625 -4.078125 C 12.273438 -4.078125 12.617188 -4.160156 12.796875 -4.328125 C 12.953125 -4.492188 13.03125 -4.816406 13.03125 -5.296875 L 13.03125 -7.4375 L 5.40625 -7.4375 L 5.40625 -11.171875 L 11.953125 -11.171875 C 12.460938 -11.171875 12.804688 -11.253906 12.984375 -11.421875 C 13.148438 -11.585938 13.234375 -11.910156 13.234375 -12.390625 L 13.234375 -14.53125 L 1.140625 -14.53125 L 1.140625 0.671875 C 1.140625 1.492188 1.328125 2.085938 1.703125 2.453125 C 2.054688 2.816406 2.703125 3 3.640625 3 L 11.953125 3 C 12.429688 3 12.773438 2.914062 12.984375 2.75 C 13.148438 2.550781 13.234375 2.222656 13.234375 1.765625 Z M 13.234375 1.765625 "/></g></g></g></g></g></svg>