<svg xmlns="http://www.w3.org/2000/svg" xmlns:xlink="http://www.w3.org/1999/xlink" width="200" zoomAndPan="magnify" viewBox="0 0 150 149.999998" height="200" preserveAspectRatio="xMidYMid meet" version="1.0"><defs><clipPath id="49bb12c343"><path d="M 15 15 L 135 15 L 135 135 L 15 135 Z M 15 15 " clip-rule="nonzero"/></clipPath><clipPath id="40630a8493"><path d="M 36.75 15 L 113.25 15 C 119.019531 15 124.550781 17.292969 128.628906 21.371094 C 132.707031 25.449219 135 30.980469 135 36.75 L 135 113.25 C 135 119.019531 132.707031 124.550781 128.628906 128.628906 C 124.550781 132.707031 119.019531 135 113.25 135 L 36.75 135 C 30.980469 135 25.449219 132.707031 21.371094 128.628906 C 17.292969 124.550781 15 119.019531 15 113.25 L 15 36.75 C 15 30.980469 17.292969 25.449219 21.371094 21.371094 C 25.449219 17.292969 30.980469 15 36.75 15 Z M 36.75 15 " clip-rule="nonzero"/></clipPath><clipPath id="723aa0b903"><path d="M 0 0 L 120 0 L 120 120 L 0 120 Z M 0 0 " clip-rule="nonzero"/></clipPath><clipPath id="d42ef66a6b"><path d="M 21.75 0 L 98.25 0 C 104.019531 0 109.550781 2.292969 113.628906 6.371094 C 117.707031 10.449219 120 15.980469 120 21.75 L 120 98.25 C 120 104.019531 117.707031 109.550781 113.628906 113.628906 C 109.550781 117.707031 104.019531 120 98.25 120 L 21.75 120 C 15.980469 120 10.449219 117.707031 6.371094 113.628906 C 2.292969 109.550781 0 104.019531 0 98.25 L 0 21.75 C 0 15.980469 2.292969 10.449219 6.371094 6.371094 C 10.449219 2.292969 15.980469 0 21.75 0 Z M 21.75 0 " clip-rule="nonzero"/></clipPath><clipPath id="9446d3e9f5"><rect x="0" width="120" y="0" height="120"/></clipPath><clipPath id="db15cd8923"><path d="M 38.625 77.273438 L 111.292969 77.273438 L 111.292969 117.195312 L 38.625 117.195312 Z M 38.625 77.273438 " clip-rule="nonzero"/></clipPath><clipPath id="859d0f5564"><path d="M 40.875 77.273438 L 108.90625 77.273438 C 109.5 77.273438 110.074219 77.511719 110.496094 77.933594 C 110.917969 78.355469 111.15625 78.925781 111.15625 79.523438 L 111.15625 114.945312 C 111.15625 115.539062 110.917969 116.113281 110.496094 116.535156 C 110.074219 116.957031 109.5 117.195312 108.90625 117.195312 L 40.875 117.195312 C 39.632812 117.195312 38.625 116.1875 38.625 114.945312 L 38.625 79.523438 C 38.625 78.28125 39.632812 77.273438 40.875 77.273438 Z M 40.875 77.273438 " clip-rule="nonzero"/></clipPath><clipPath id="3f07fa59c8"><path d="M 0.625 0.273438 L 73.292969 0.273438 L 73.292969 40.195312 L 0.625 40.195312 Z M 0.625 0.273438 " clip-rule="nonzero"/></clipPath><clipPath id="dd8d557a56"><path d="M 2.875 0.273438 L 70.90625 0.273438 C 71.5 0.273438 72.074219 0.511719 72.496094 0.933594 C 72.917969 1.355469 73.15625 1.925781 73.15625 2.523438 L 73.15625 37.945312 C 73.15625 38.539062 72.917969 39.113281 72.496094 39.535156 C 72.074219 39.957031 71.5 40.195312 70.90625 40.195312 L 2.875 40.195312 C 1.632812 40.195312 0.625 39.1875 0.625 37.945312 L 0.625 2.523438 C 0.625 1.28125 1.632812 0.273438 2.875 0.273438 Z M 2.875 0.273438 " clip-rule="nonzero"/></clipPath><clipPath id="80534b6ea0"><rect x="0" width="74" y="0" height="41"/></clipPath><clipPath id="0d5064b94c"><path d="M 51.921875 35.679688 L 96.921875 35.679688 L 96.921875 80.679688 L 51.921875 80.679688 Z M 51.921875 35.679688 " clip-rule="nonzero"/></clipPath><clipPath id="c189adb8af"><path d="M 74.421875 35.679688 C 61.996094 35.679688 51.921875 45.753906 51.921875 58.179688 C 51.921875 70.609375 61.996094 80.679688 74.421875 80.679688 C 86.851562 80.679688 96.921875 70.609375 96.921875 58.179688 C 96.921875 45.753906 86.851562 35.679688 74.421875 35.679688 Z M 74.421875 35.679688 " clip-rule="nonzero"/></clipPath><clipPath id="5c6421a93b"><path d="M 0.921875 0.679688 L 45.921875 0.679688 L 45.921875 45.679688 L 0.921875 45.679688 Z M 0.921875 0.679688 " clip-rule="nonzero"/></clipPath><clipPath id="daf30bb17c"><path d="M 23.421875 0.679688 C 10.996094 0.679688 0.921875 10.753906 0.921875 23.179688 C 0.921875 35.609375 10.996094 45.679688 23.421875 45.679688 C 35.851562 45.679688 45.921875 35.609375 45.921875 23.179688 C 45.921875 10.753906 35.851562 0.679688 23.421875 0.679688 Z M 23.421875 0.679688 " clip-rule="nonzero"/></clipPath><clipPath id="149dcfbd60"><rect x="0" width="46" y="0" height="46"/></clipPath><clipPath id="405af6e36a"><path d="M 41.25 53.105469 L 86.25 53.105469 L 86.25 98.105469 L 41.25 98.105469 Z M 41.25 53.105469 " clip-rule="nonzero"/></clipPath><clipPath id="6fb1212f5f"><path d="M 63.75 53.105469 C 51.324219 53.105469 41.25 63.179688 41.25 75.605469 C 41.25 88.035156 51.324219 98.105469 63.75 98.105469 C 76.175781 98.105469 86.25 88.035156 86.25 75.605469 C 86.25 63.179688 76.175781 53.105469 63.75 53.105469 Z M 63.75 53.105469 " clip-rule="nonzero"/></clipPath><clipPath id="2e097fbce3"><path d="M 0.25 0.105469 L 45.25 0.105469 L 45.25 45.105469 L 0.25 45.105469 Z M 0.25 0.105469 " clip-rule="nonzero"/></clipPath><clipPath id="d0094a63ce"><path d="M 22.75 0.105469 C 10.324219 0.105469 0.25 10.179688 0.25 22.605469 C 0.25 35.035156 10.324219 45.105469 22.75 45.105469 C 35.175781 45.105469 45.25 35.035156 45.25 22.605469 C 45.25 10.179688 35.175781 0.105469 22.75 0.105469 Z M 22.75 0.105469 " clip-rule="nonzero"/></clipPath><clipPath id="5a8917df37"><rect x="0" width="46" y="0" height="46"/></clipPath><clipPath id="7d521fec73"><path d="M 63.75 53.105469 L 108.75 53.105469 L 108.75 98.105469 L 63.75 98.105469 Z M 63.75 53.105469 " clip-rule="nonzero"/></clipPath><clipPath id="b94d055802"><path d="M 86.25 53.105469 C 73.824219 53.105469 63.75 63.179688 63.75 75.605469 C 63.75 88.035156 73.824219 98.105469 86.25 98.105469 C 98.675781 98.105469 108.75 88.035156 108.75 75.605469 C 108.75 63.179688 98.675781 53.105469 86.25 53.105469 Z M 86.25 53.105469 " clip-rule="nonzero"/></clipPath><clipPath id="0e71098358"><path d="M 0.75 0.105469 L 45.75 0.105469 L 45.75 45.105469 L 0.75 45.105469 Z M 0.75 0.105469 " clip-rule="nonzero"/></clipPath><clipPath id="b865c5223c"><path d="M 23.25 0.105469 C 10.824219 0.105469 0.75 10.179688 0.75 22.605469 C 0.75 35.035156 10.824219 45.105469 23.25 45.105469 C 35.675781 45.105469 45.75 35.035156 45.75 22.605469 C 45.75 10.179688 35.675781 0.105469 23.25 0.105469 Z M 23.25 0.105469 " clip-rule="nonzero"/></clipPath><clipPath id="debc7d515e"><rect x="0" width="46" y="0" height="46"/></clipPath><clipPath id="1ac0729009"><path d="M 38.625 75 L 111.15625 75 L 111.15625 99.382812 L 38.625 99.382812 Z M 38.625 75 " clip-rule="nonzero"/></clipPath><clipPath id="9e664c76c3"><path d="M 0.625 0 L 73.15625 0 L 73.15625 24.382812 L 0.625 24.382812 Z M 0.625 0 " clip-rule="nonzero"/></clipPath><clipPath id="ff40c30e16"><rect x="0" width="74" y="0" height="25"/></clipPath></defs><g clip-path="url(#49bb12c343)"><g clip-path="url(#40630a8493)"><g transform="matrix(1, 0, 0, 1, 15, 15)"><g clip-path="url(#9446d3e9f5)"><g clip-path="url(#723aa0b903)"><g clip-path="url(#d42ef66a6b)"><rect x="-48" width="216" fill="#ddf7ff" height="215.999996" y="-47.999999" fill-opacity="1"/></g></g></g></g><path stroke-linecap="butt" transform="matrix(0.75, 0, 0, 0.75, 15, 15.000001)" fill="none" stroke-linejoin="miter" d="M 28.999999 -0.0000015 L 130.999999 -0.0000015 C 138.692707 -0.0000015 146.067707 3.05729 151.505207 8.49479 C 156.942707 13.93229 159.999999 21.30729 159.999999 28.999998 L 159.999999 130.999998 C 159.999999 138.692706 156.942707 146.067706 151.505207 151.505206 C 146.067707 156.942706 138.692707 159.999998 130.999999 159.999998 L 28.999999 159.999998 C 21.307291 159.999998 13.932291 156.942706 8.494791 151.505206 C 3.057291 146.067706 -0.0000005 138.692706 -0.0000005 130.999998 L -0.0000005 28.999998 C -0.0000005 21.30729 3.057291 13.93229 8.494791 8.49479 C 13.932291 3.05729 21.307291 -0.0000015 28.999999 -0.0000015 Z M 28.999999 -0.0000015 " stroke="#000000" stroke-width="8" stroke-opacity="1" stroke-miterlimit="4"/></g></g><g clip-path="url(#db15cd8923)"><g clip-path="url(#859d0f5564)"><g transform="matrix(1, 0, 0, 1, 38, 77)"><g clip-path="url(#80534b6ea0)"><g clip-path="url(#3f07fa59c8)"><g clip-path="url(#dd8d557a56)"><path fill="#ffffff" d="M 0.625 0.273438 L 73.136719 0.273438 L 73.136719 40.195312 L 0.625 40.195312 Z M 0.625 0.273438 " fill-opacity="1" fill-rule="nonzero"/></g></g></g></g></g></g><path stroke-linecap="butt" transform="matrix(0, 0.75, -0.75, 0, 38.570697, 73.503586)" fill="none" stroke-linejoin="miter" d="M 0.000427384 2.000513 L 45.745222 2.000513 " stroke="#000000" stroke-width="4" stroke-opacity="1" stroke-miterlimit="4"/><path stroke-linecap="butt" transform="matrix(0, 0.75, -0.75, 0, 114.422119, 73.503586)" fill="none" stroke-linejoin="miter" d="M 0.000427384 2.000325 L 45.745222 2.000325 " stroke="#000000" stroke-width="4" stroke-opacity="1" stroke-miterlimit="4"/><path stroke-linecap="butt" transform="matrix(0.75, 0, 0, 0.75, 35.574283, 98.107057)" fill="none" stroke-linejoin="miter" d="M 1.999915 1.701007 L 1.999915 14.622883 C 1.999915 18.049967 3.35929 21.336425 5.786374 23.7583 C 8.208249 26.180175 11.494707 27.539551 14.921791 27.539551 L 89.364503 27.539551 C 96.968671 27.539551 103.135338 21.378092 103.135338 13.768716 L 103.135338 -0.00211777 " stroke="#000000" stroke-width="4" stroke-opacity="1" stroke-miterlimit="4"/><g clip-path="url(#0d5064b94c)"><g clip-path="url(#c189adb8af)"><g transform="matrix(1, 0, 0, 1, 51, 35)"><g clip-path="url(#149dcfbd60)"><g clip-path="url(#5c6421a93b)"><g clip-path="url(#daf30bb17c)"><path fill="#ffffff" d="M 0.921875 0.679688 L 45.921875 0.679688 L 45.921875 45.679688 L 0.921875 45.679688 Z M 0.921875 0.679688 " fill-opacity="1" fill-rule="nonzero"/></g></g></g></g><path stroke-linecap="butt" transform="matrix(0.75, 0, 0, 0.75, 51.9233, 35.68155)" fill="none" stroke-linejoin="miter" d="M 29.9981 -0.00248354 C 13.430392 -0.00248354 -0.00189976 13.429808 -0.00189976 29.997516 C -0.00189976 46.570433 13.430392 59.997516 29.9981 59.997516 C 46.571017 59.997516 59.9981 46.570433 59.9981 29.997516 C 59.9981 13.429808 46.571017 -0.00248354 29.9981 -0.00248354 Z M 29.9981 -0.00248354 " stroke="#000000" stroke-width="8" stroke-opacity="1" stroke-miterlimit="4"/></g></g><g clip-path="url(#405af6e36a)"><g clip-path="url(#6fb1212f5f)"><g transform="matrix(1, 0, 0, 1, 41, 53)"><g clip-path="url(#5a8917df37)"><g clip-path="url(#2e097fbce3)"><g clip-path="url(#d0094a63ce)"><path fill="#ffffff" d="M 0.25 0.105469 L 45.25 0.105469 L 45.25 45.105469 L 0.25 45.105469 Z M 0.25 0.105469 " fill-opacity="1" fill-rule="nonzero"/></g></g></g></g><path stroke-linecap="butt" transform="matrix(0.75, 0, 0, 0.75, 41.249999, 53.107062)" fill="none" stroke-linejoin="miter" d="M 30.000001 -0.00212447 C 13.432293 -0.00212447 0.00000154167 13.430167 0.00000154167 29.997875 C 0.00000154167 46.570792 13.432293 59.997875 30.000001 59.997875 C 46.56771 59.997875 60.000001 46.570792 60.000001 29.997875 C 60.000001 13.430167 46.56771 -0.00212447 30.000001 -0.00212447 Z M 30.000001 -0.00212447 " stroke="#000000" stroke-width="8" stroke-opacity="1" stroke-miterlimit="4"/></g></g><g clip-path="url(#7d521fec73)"><g clip-path="url(#b94d055802)"><g transform="matrix(1, 0, 0, 1, 63, 53)"><g clip-path="url(#debc7d515e)"><g clip-path="url(#0e71098358)"><g clip-path="url(#b865c5223c)"><path fill="#ffffff" d="M 0.75 0.105469 L 45.75 0.105469 L 45.75 45.105469 L 0.75 45.105469 Z M 0.75 0.105469 " fill-opacity="1" fill-rule="nonzero"/></g></g></g></g><path stroke-linecap="butt" transform="matrix(0.75, 0, 0, 0.75, 63.749998, 53.107062)" fill="none" stroke-linejoin="miter" d="M 30.000003 -0.00212447 C 13.432295 -0.00212447 0.00000329167 13.430167 0.00000329167 29.997875 C 0.00000329167 46.570792 13.432295 59.997875 30.000003 59.997875 C 46.567711 59.997875 60.000003 46.570792 60.000003 29.997875 C 60.000003 13.430167 46.567711 -0.00212447 30.000003 -0.00212447 Z M 30.000003 -0.00212447 " stroke="#000000" stroke-width="8" stroke-opacity="1" stroke-miterlimit="4"/></g></g><path stroke-linecap="butt" transform="matrix(0.75, 0.000000000000000101, -0.000000000000000101, 0.75, 35.574283, 71.999998)" fill="none" stroke-linejoin="miter" d="M -0.0000851531 2.000003 L 105.135338 2.000003 " stroke="#000000" stroke-width="4" stroke-opacity="1" stroke-miterlimit="4"/><g clip-path="url(#1ac0729009)"><g transform="matrix(1, 0, 0, 1, 38, 75)"><g clip-path="url(#ff40c30e16)"><g clip-path="url(#9e664c76c3)"><path fill="#ffffff" d="M 0.625 0 L 73.199219 0 L 73.199219 24.382812 L 0.625 24.382812 Z M 0.625 0 " fill-opacity="1" fill-rule="nonzero"/></g></g></g></g></svg>