<svg xmlns="http://www.w3.org/2000/svg" xmlns:xlink="http://www.w3.org/1999/xlink" width="200" zoomAndPan="magnify" viewBox="0 0 150 149.999998" height="200" preserveAspectRatio="xMidYMid meet" version="1.0"><defs><clipPath id="ff98cb479b"><path d="M 15 15 L 135 15 L 135 135 L 15 135 Z M 15 15 " clip-rule="nonzero"/></clipPath><clipPath id="a93a028346"><path d="M 36.75 15 L 113.25 15 C 119.019531 15 124.550781 17.292969 128.628906 21.371094 C 132.707031 25.449219 135 30.980469 135 36.75 L 135 113.25 C 135 119.019531 132.707031 124.550781 128.628906 128.628906 C 124.550781 132.707031 119.019531 135 113.25 135 L 36.75 135 C 30.980469 135 25.449219 132.707031 21.371094 128.628906 C 17.292969 124.550781 15 119.019531 15 113.25 L 15 36.75 C 15 30.980469 17.292969 25.449219 21.371094 21.371094 C 25.449219 17.292969 30.980469 15 36.75 15 Z M 36.75 15 " clip-rule="nonzero"/></clipPath><clipPath id="dfc0207cfa"><path d="M 0 0 L 120 0 L 120 120 L 0 120 Z M 0 0 " clip-rule="nonzero"/></clipPath><clipPath id="76c3212971"><path d="M 21.75 0 L 98.25 0 C 104.019531 0 109.550781 2.292969 113.628906 6.371094 C 117.707031 10.449219 120 15.980469 120 21.75 L 120 98.25 C 120 104.019531 117.707031 109.550781 113.628906 113.628906 C 109.550781 117.707031 104.019531 120 98.25 120 L 21.75 120 C 15.980469 120 10.449219 117.707031 6.371094 113.628906 C 2.292969 109.550781 0 104.019531 0 98.25 L 0 21.75 C 0 15.980469 2.292969 10.449219 6.371094 6.371094 C 10.449219 2.292969 15.980469 0 21.75 0 Z M 21.75 0 " clip-rule="nonzero"/></clipPath><clipPath id="e9f91022d1"><rect x="0" width="120" y="0" height="120"/></clipPath><clipPath id="9ac5db691e"><path d="M 41.78125 35.585938 L 108.21875 35.585938 L 108.21875 114.484375 L 41.78125 114.484375 Z M 41.78125 35.585938 " clip-rule="nonzero"/></clipPath><clipPath id="1fcd800547"><path d="M 51.53125 35.585938 L 98.46875 35.585938 C 103.855469 35.585938 108.21875 39.949219 108.21875 45.335938 L 108.21875 104.664062 C 108.21875 110.050781 103.855469 114.414062 98.46875 114.414062 L 51.53125 114.414062 C 46.144531 114.414062 41.78125 110.050781 41.78125 104.664062 L 41.78125 45.335938 C 41.78125 39.949219 46.144531 35.585938 51.53125 35.585938 Z M 51.53125 35.585938 " clip-rule="nonzero"/></clipPath><clipPath id="7789b4d62c"><path d="M 0.78125 0.585938 L 67.21875 0.585938 L 67.21875 79.480469 L 0.78125 79.480469 Z M 0.78125 0.585938 " clip-rule="nonzero"/></clipPath><clipPath id="312591db42"><path d="M 10.53125 0.585938 L 57.46875 0.585938 C 62.855469 0.585938 67.21875 4.949219 67.21875 10.335938 L 67.21875 69.664062 C 67.21875 75.050781 62.855469 79.414062 57.46875 79.414062 L 10.53125 79.414062 C 5.144531 79.414062 0.78125 75.050781 0.78125 69.664062 L 0.78125 10.335938 C 0.78125 4.949219 5.144531 0.585938 10.53125 0.585938 Z M 10.53125 0.585938 " clip-rule="nonzero"/></clipPath><clipPath id="8f164d8d76"><rect x="0" width="68" y="0" height="80"/></clipPath><clipPath id="a54fc56410"><path d="M 41.78125 35.585938 L 108.53125 35.585938 L 108.53125 114.335938 L 41.78125 114.335938 Z M 41.78125 35.585938 " clip-rule="nonzero"/></clipPath><clipPath id="9e887f30f0"><path d="M 51.527344 35.585938 L 98.464844 35.585938 C 103.847656 35.585938 108.214844 39.949219 108.214844 45.335938 L 108.214844 104.65625 C 108.214844 110.042969 103.847656 114.40625 98.464844 114.40625 L 51.527344 114.40625 C 46.144531 114.40625 41.78125 110.042969 41.78125 104.65625 L 41.78125 45.335938 C 41.78125 39.949219 46.144531 35.585938 51.527344 35.585938 Z M 51.527344 35.585938 " clip-rule="nonzero"/></clipPath></defs><g clip-path="url(#ff98cb479b)"><g clip-path="url(#a93a028346)"><g transform="matrix(1, 0, 0, 1, 15, 15)"><g clip-path="url(#e9f91022d1)"><g clip-path="url(#dfc0207cfa)"><g clip-path="url(#76c3212971)"><rect x="-48" width="216" fill="#fffae4" height="215.999996" y="-47.999999" fill-opacity="1"/></g></g></g></g><path stroke-linecap="butt" transform="matrix(0.75, 0, 0, 0.75, 15, 15.000001)" fill="none" stroke-linejoin="miter" d="M 28.999999 -0.0000015 L 130.999999 -0.0000015 C 138.692707 -0.0000015 146.067707 3.05729 151.505207 8.49479 C 156.942707 13.93229 159.999999 21.30729 159.999999 28.999998 L 159.999999 130.999998 C 159.999999 138.692706 156.942707 146.067706 151.505207 151.505206 C 146.067707 156.942706 138.692707 159.999998 130.999999 159.999998 L 28.999999 159.999998 C 21.307291 159.999998 13.932291 156.942706 8.494791 151.505206 C 3.057291 146.067706 -0.0000005 138.692706 -0.0000005 130.999998 L -0.0000005 28.999998 C -0.0000005 21.30729 3.057291 13.93229 8.494791 8.49479 C 13.932291 3.05729 21.307291 -0.0000015 28.999999 -0.0000015 Z M 28.999999 -0.0000015 " stroke="#000000" stroke-width="8" stroke-opacity="1" stroke-miterlimit="4"/></g></g><g clip-path="url(#9ac5db691e)"><g clip-path="url(#1fcd800547)"><g transform="matrix(1, 0, 0, 1, 41, 35)"><g clip-path="url(#8f164d8d76)"><g clip-path="url(#7789b4d62c)"><g clip-path="url(#312591db42)"><path fill="#ffffff" d="M 0.78125 0.585938 L 67.21875 0.585938 L 67.21875 79.484375 L 0.78125 79.484375 Z M 0.78125 0.585938 " fill-opacity="1" fill-rule="nonzero"/></g></g></g></g></g></g><g clip-path="url(#a54fc56410)"><g clip-path="url(#9e887f30f0)"><path stroke-linecap="butt" transform="matrix(0.75, 0, 0, 0.75, 41.779916, 35.585537)" fill="none" stroke-linejoin="miter" d="M 12.996571 0.000534048 L 75.579908 0.000534048 C 82.756991 0.000534048 88.579908 5.818243 88.579908 13.000535 L 88.579908 92.094289 C 88.579908 99.276582 82.756991 105.09429 75.579908 105.09429 L 12.996571 105.09429 C 5.819487 105.09429 0.00177812 99.276582 0.00177812 92.094289 L 0.00177812 13.000535 C 0.00177812 5.818243 5.819487 0.000534048 12.996571 0.000534048 Z M 12.996571 0.000534048 " stroke="#000000" stroke-width="8" stroke-opacity="1" stroke-miterlimit="4"/></g></g><path stroke-linecap="butt" transform="matrix(0.75, 0, 0, 0.75, 52.027513, 56.115349)" fill="none" stroke-linejoin="miter" d="M -0.000225153 2.002451 L 61.260195 2.002451 " stroke="#000000" stroke-width="4" stroke-opacity="1" stroke-miterlimit="4"/><path stroke-linecap="butt" transform="matrix(0.75, 0, 0, 0.75, 52.027513, 73.82033)" fill="none" stroke-linejoin="miter" d="M -0.000225153 1.999976 L 61.260195 1.999976 " stroke="#000000" stroke-width="4" stroke-opacity="1" stroke-miterlimit="4"/><path stroke-linecap="butt" transform="matrix(0.75, 0, 0, 0.75, 52.027513, 91.525309)" fill="none" stroke-linejoin="miter" d="M -0.000225153 1.997504 L 61.260195 1.997504 " stroke="#000000" stroke-width="4" stroke-opacity="1" stroke-miterlimit="4"/><path stroke-linecap="round" transform="matrix(0.000000001309, 0.75, -0.75, 0.000000001309, 55.037657, 30.344649)" fill="none" stroke-linejoin="miter" d="M 1.998802 1.998126 L 17.832136 1.998126 " stroke="#000000" stroke-width="4" stroke-opacity="1" stroke-miterlimit="4"/><path stroke-linecap="round" transform="matrix(0.000000001309, 0.75, -0.75, 0.000000001309, 69.230959, 30.344649)" fill="none" stroke-linejoin="miter" d="M 1.998802 2.000654 L 17.832136 2.000654 " stroke="#000000" stroke-width="4" stroke-opacity="1" stroke-miterlimit="4"/><path stroke-linecap="round" transform="matrix(0.000000001309, 0.75, -0.75, 0.000000001309, 83.424246, 30.344649)" fill="none" stroke-linejoin="miter" d="M 1.998802 1.997953 L 17.832136 1.997953 " stroke="#000000" stroke-width="4" stroke-opacity="1" stroke-miterlimit="4"/><path stroke-linecap="round" transform="matrix(0, 0.75, -0.75, 0, 97.61755, 30.344649)" fill="none" stroke-linejoin="miter" d="M 1.998802 2.000483 L 17.832136 2.000483 " stroke="#000000" stroke-width="4" stroke-opacity="1" stroke-miterlimit="4"/></svg>